<svg width="21" height="21" viewBox="0 0 21 21" fill="none" xmlns="http://www.w3.org/2000/svg">
<path d="M2.5 6H16.5V4H2.5V6ZM2.5 20C1.95 20 1.47917 19.8042 1.0875 19.4125C0.695833 19.0208 0.5 18.55 0.5 18V4C0.5 3.45 0.695833 2.97917 1.0875 2.5875C1.47917 2.19583 1.95 2 2.5 2H3.5V0H5.5V2H13.5V0H15.5V2H16.5C17.05 2 17.5208 2.19583 17.9125 2.5875C18.3042 2.97917 18.5 3.45 18.5 4V9.675C18.1833 9.525 17.8583 9.4 17.525 9.3C17.1917 9.2 16.85 9.125 16.5 9.075V8H2.5V18H8.8C8.91667 18.3667 9.05417 18.7167 9.2125 19.05C9.37083 19.3833 9.55833 19.7 9.775 20H2.5ZM15.5 21C14.1167 21 12.9375 20.5125 11.9625 19.5375C10.9875 18.5625 10.5 17.3833 10.5 16C10.5 14.6167 10.9875 13.4375 11.9625 12.4625C12.9375 11.4875 14.1167 11 15.5 11C16.8833 11 18.0625 11.4875 19.0375 12.4625C20.0125 13.4375 20.5 14.6167 20.5 16C20.5 17.3833 20.0125 18.5625 19.0375 19.5375C18.0625 20.5125 16.8833 21 15.5 21ZM17.175 18.375L17.875 17.675L16 15.8V13H15V16.2L17.175 18.375Z" fill="#7B7B7B"/>
</svg>
