<svg width="21" height="18" viewBox="0 0 21 18" fill="none" xmlns="http://www.w3.org/2000/svg">
<path d="M14.5 18C13.95 18 13.4792 17.8042 13.0875 17.4125C12.6958 17.0208 12.5 16.55 12.5 16V12C12.5 11.45 12.6958 10.9792 13.0875 10.5875C13.4792 10.1958 13.95 10 14.5 10H18.5C19.05 10 19.5208 10.1958 19.9125 10.5875C20.3042 10.9792 20.5 11.45 20.5 12V16C20.5 16.55 20.3042 17.0208 19.9125 17.4125C19.5208 17.8042 19.05 18 18.5 18H14.5ZM14.5 16H18.5V12H14.5V16ZM0.5 15V13H9.5V15H0.5ZM14.5 8C13.95 8 13.4792 7.80417 13.0875 7.4125C12.6958 7.02083 12.5 6.55 12.5 6V2C12.5 1.45 12.6958 0.979167 13.0875 0.5875C13.4792 0.195833 13.95 0 14.5 0H18.5C19.05 0 19.5208 0.195833 19.9125 0.5875C20.3042 0.979167 20.5 1.45 20.5 2V6C20.5 6.55 20.3042 7.02083 19.9125 7.4125C19.5208 7.80417 19.05 8 18.5 8H14.5ZM14.5 6H18.5V2H14.5V6ZM0.5 5V3H9.5V5H0.5Z" fill="url(#paint0_linear_1440_723)"/>
<defs>
<linearGradient id="paint0_linear_1440_723" x1="10.5" y1="0" x2="10.5" y2="76.95" gradientUnits="userSpaceOnUse">
<stop stop-color="#E0001E"/>
<stop offset="1" stop-color="#70000F"/>
</linearGradient>
</defs>
</svg>
