<svg width="191" height="272" viewBox="0 0 191 272" fill="none" xmlns="http://www.w3.org/2000/svg">
<g clip-path="url(#clip0_1335_6112)">
<mask id="mask0_1335_6112" style="mask-type:luminance" maskUnits="userSpaceOnUse" x="-149" y="-32" width="486" height="374">
<path fill-rule="evenodd" clip-rule="evenodd" d="M-148.993 -31.3846H336.055V341.961H-148.993V-31.3846Z" fill="white"/>
</mask>
<g mask="url(#mask0_1335_6112)">
<path d="M-148.993 -31.3846H336.055V341.961H-148.993V-31.3846Z" fill="white"/>
</g>
<mask id="mask1_1335_6112" style="mask-type:luminance" maskUnits="userSpaceOnUse" x="-149" y="-32" width="486" height="379">
<path d="M-148.993 -31.3846H336.055V346.537H-148.993V-31.3846Z" fill="white"/>
</mask>
<g mask="url(#mask1_1335_6112)">
<mask id="mask2_1335_6112" style="mask-type:luminance" maskUnits="userSpaceOnUse" x="-149" y="-32" width="486" height="374">
<path d="M-148.993 -31.3846H336.055V341.961H-148.993V-31.3846Z" fill="white"/>
</mask>
<g mask="url(#mask2_1335_6112)">
<mask id="mask3_1335_6112" style="mask-type:luminance" maskUnits="userSpaceOnUse" x="-149" y="-32" width="486" height="374">
<path d="M-148.993 -31.3846H336.055V341.961H-148.993V-31.3846Z" fill="white"/>
</mask>
<g mask="url(#mask3_1335_6112)">
<mask id="mask4_1335_6112" style="mask-type:luminance" maskUnits="userSpaceOnUse" x="4" y="20" width="160" height="159">
<path d="M4.33478 20.2485H163.788V178.47H4.33478V20.2485Z" fill="white"/>
</mask>
<g mask="url(#mask4_1335_6112)">
<mask id="mask5_1335_6112" style="mask-type:luminance" maskUnits="userSpaceOnUse" x="9" y="20" width="155" height="157">
<path d="M63.5833 20.6947V22.9824C63.5833 56.9984 63.5772 91.0083 63.5895 125.024C63.5895 127.562 63.2588 127.275 65.9229 127.275L163.655 127.282C154.61 151.567 125.654 177.964 85.8454 176.225C46.423 174.511 14.9254 144.338 9.94634 106.815C4.45893 65.4475 31.3264 31.1386 63.5833 20.6947Z" fill="white"/>
</mask>
<g mask="url(#mask5_1335_6112)">
<path d="M6.16757 5.03491H180.894V179.079H6.16757V5.03491Z" fill="#CB2028"/>
</g>
</g>
</g>
</g>
</g>
<mask id="mask6_1335_6112" style="mask-type:luminance" maskUnits="userSpaceOnUse" x="-149" y="-32" width="486" height="379">
<path d="M-148.993 -31.3846H336.055V346.537H-148.993V-31.3846Z" fill="white"/>
</mask>
<g mask="url(#mask6_1335_6112)">
<mask id="mask7_1335_6112" style="mask-type:luminance" maskUnits="userSpaceOnUse" x="-149" y="-32" width="486" height="374">
<path d="M-148.993 -31.3846H336.055V341.961H-148.993V-31.3846Z" fill="white"/>
</mask>
<g mask="url(#mask7_1335_6112)">
<mask id="mask8_1335_6112" style="mask-type:luminance" maskUnits="userSpaceOnUse" x="-149" y="-32" width="486" height="374">
<path d="M-148.993 -31.3846H336.055V341.961H-148.993V-31.3846Z" fill="white"/>
</mask>
<g mask="url(#mask8_1335_6112)">
<mask id="mask9_1335_6112" style="mask-type:luminance" maskUnits="userSpaceOnUse" x="83" y="18" width="81" height="89">
<path d="M83.145 18.423H163.788V106.662H83.145V18.423Z" fill="white"/>
</mask>
<g mask="url(#mask9_1335_6112)">
<mask id="mask10_1335_6112" style="mask-type:luminance" maskUnits="userSpaceOnUse" x="83" y="19" width="81" height="88">
<path d="M83.6651 19.2429C83.7263 33.1641 83.7018 48.708 83.7018 62.6353L83.659 104.222C83.6468 105.918 84.1612 106.26 85.7535 106.247L109.54 106.211C127.142 106.211 144.737 106.211 162.338 106.211C163.233 106.211 163.643 106.473 163.649 105.039C163.649 104.551 163.557 98.0727 163.557 85.3899L163.514 85.396L104.39 85.3899V19.0172" fill="white"/>
</mask>
<g mask="url(#mask10_1335_6112)">
<path d="M6.16754 5.03503H180.894V179.079H6.16754V5.03503Z" fill="#CB2028"/>
</g>
</g>
</g>
</g>
</g>
<mask id="mask11_1335_6112" style="mask-type:luminance" maskUnits="userSpaceOnUse" x="-149" y="-32" width="486" height="379">
<path d="M-148.993 -31.3846H336.055V346.537H-148.993V-31.3846Z" fill="white"/>
</mask>
<g mask="url(#mask11_1335_6112)">
<mask id="mask12_1335_6112" style="mask-type:luminance" maskUnits="userSpaceOnUse" x="-149" y="-32" width="486" height="374">
<path d="M-148.993 -31.3846H336.055V341.961H-148.993V-31.3846Z" fill="white"/>
</mask>
<g mask="url(#mask12_1335_6112)">
<mask id="mask13_1335_6112" style="mask-type:luminance" maskUnits="userSpaceOnUse" x="-149" y="-32" width="486" height="374">
<path d="M-148.993 -31.3846H336.055V341.961H-148.993V-31.3846Z" fill="white"/>
</mask>
<g mask="url(#mask13_1335_6112)">
<mask id="mask14_1335_6112" style="mask-type:luminance" maskUnits="userSpaceOnUse" x="121" y="8" width="58" height="61">
<path d="M121.023 8.07764H178.45V68.9322H121.023V8.07764Z" fill="white"/>
</mask>
<g mask="url(#mask14_1335_6112)">
<mask id="mask15_1335_6112" style="mask-type:luminance" maskUnits="userSpaceOnUse" x="121" y="8" width="57" height="61">
<path d="M121.189 8.10949C121.232 18.1203 121.213 27.5028 121.213 37.5075L121.183 67.4057C121.177 68.6258 121.544 68.8698 122.689 68.8576L139.789 68.8332C152.442 68.8332 165.094 68.8332 177.747 68.8332C177.747 68.8332 177.894 65.7098 177.79 61.2748C177.79 61.2748 177.796 57.3095 177.784 56.5835C177.741 53.0636 177.741 52.2522 177.741 52.2522L138.49 52.3742L138.343 8.08508" fill="white"/>
</mask>
<g mask="url(#mask15_1335_6112)">
<path d="M6.16754 5.03491H180.894V179.079H6.16754V5.03491Z" fill="#CB2028"/>
</g>
</g>
</g>
</g>
</g>
<mask id="mask16_1335_6112" style="mask-type:luminance" maskUnits="userSpaceOnUse" x="-149" y="-32" width="486" height="379">
<path d="M-148.993 -31.3846H336.055V346.537H-148.993V-31.3846Z" fill="white"/>
</mask>
<g mask="url(#mask16_1335_6112)">
<mask id="mask17_1335_6112" style="mask-type:luminance" maskUnits="userSpaceOnUse" x="-149" y="-32" width="486" height="374">
<path d="M-148.993 -31.3846H336.055V341.961H-148.993V-31.3846Z" fill="white"/>
</mask>
<g mask="url(#mask17_1335_6112)">
<mask id="mask18_1335_6112" style="mask-type:luminance" maskUnits="userSpaceOnUse" x="-149" y="-32" width="486" height="374">
<path d="M-148.993 -31.3846H336.055V341.961H-148.993V-31.3846Z" fill="white"/>
</mask>
<g mask="url(#mask18_1335_6112)">
<mask id="mask19_1335_6112" style="mask-type:luminance" maskUnits="userSpaceOnUse" x="85" y="198" width="39" height="55">
<path d="M85.7354 198.455H123.407V252.99H85.7354V198.455Z" fill="white"/>
</mask>
<g mask="url(#mask19_1335_6112)">
<mask id="mask20_1335_6112" style="mask-type:luminance" maskUnits="userSpaceOnUse" x="85" y="198" width="39" height="55">
<path d="M102.496 198.485H85.9529V252.894H123.22V238.54H102.496V198.485Z" fill="white"/>
</mask>
<g mask="url(#mask20_1335_6112)">
<path d="M16.42 193.201H170.622V257.243H16.42V193.201Z" fill="#202E61"/>
</g>
</g>
</g>
</g>
</g>
<mask id="mask21_1335_6112" style="mask-type:luminance" maskUnits="userSpaceOnUse" x="-149" y="-32" width="486" height="379">
<path d="M-148.993 -31.3846H336.055V346.537H-148.993V-31.3846Z" fill="white"/>
</mask>
<g mask="url(#mask21_1335_6112)">
<mask id="mask22_1335_6112" style="mask-type:luminance" maskUnits="userSpaceOnUse" x="-149" y="-32" width="486" height="374">
<path d="M-148.993 -31.3846H336.055V341.961H-148.993V-31.3846Z" fill="white"/>
</mask>
<g mask="url(#mask22_1335_6112)">
<mask id="mask23_1335_6112" style="mask-type:luminance" maskUnits="userSpaceOnUse" x="-149" y="-32" width="486" height="374">
<path d="M-148.993 -31.3846H336.055V341.961H-148.993V-31.3846Z" fill="white"/>
</mask>
<g mask="url(#mask23_1335_6112)">
<mask id="mask24_1335_6112" style="mask-type:luminance" maskUnits="userSpaceOnUse" x="129" y="198" width="39" height="55">
<path d="M129.685 198.455H167.357V252.99H129.685V198.455Z" fill="white"/>
</mask>
<g mask="url(#mask24_1335_6112)">
<mask id="mask25_1335_6112" style="mask-type:luminance" maskUnits="userSpaceOnUse" x="129" y="198" width="39" height="55">
<path d="M146.388 238.54V198.485H129.852V252.894H167.112V238.54H146.388Z" fill="white"/>
</mask>
<g mask="url(#mask25_1335_6112)">
<path d="M16.4199 193.201H170.622V257.243H16.4199V193.201Z" fill="#202E61"/>
</g>
</g>
</g>
</g>
</g>
<mask id="mask26_1335_6112" style="mask-type:luminance" maskUnits="userSpaceOnUse" x="-149" y="-32" width="486" height="379">
<path d="M-148.993 -31.3846H336.055V346.537H-148.993V-31.3846Z" fill="white"/>
</mask>
<g mask="url(#mask26_1335_6112)">
<mask id="mask27_1335_6112" style="mask-type:luminance" maskUnits="userSpaceOnUse" x="-149" y="-32" width="486" height="374">
<path d="M-148.993 -31.3846H336.055V341.961H-148.993V-31.3846Z" fill="white"/>
</mask>
<g mask="url(#mask27_1335_6112)">
<mask id="mask28_1335_6112" style="mask-type:luminance" maskUnits="userSpaceOnUse" x="-149" y="-32" width="486" height="374">
<path d="M-148.993 -31.3846H336.055V341.961H-148.993V-31.3846Z" fill="white"/>
</mask>
<g mask="url(#mask28_1335_6112)">
<mask id="mask29_1335_6112" style="mask-type:luminance" maskUnits="userSpaceOnUse" x="19" y="196" width="62" height="58">
<path d="M19.9359 196.703H80.7125V253.74H19.9359V196.703Z" fill="white"/>
</mask>
<g mask="url(#mask29_1335_6112)">
<mask id="mask30_1335_6112" style="mask-type:luminance" maskUnits="userSpaceOnUse" x="19" y="196" width="62" height="58">
<path d="M50.2256 211.424C42.1803 211.424 36.9534 217.538 36.9534 225.221C36.9534 232.905 42.1803 239.019 50.2256 239.019C58.271 239.019 63.4979 232.905 63.4979 225.221C63.4979 217.538 58.271 211.424 50.2256 211.424ZM50.2256 196.719C67.3122 196.719 80.4997 208.286 80.4997 225.221C80.4997 242.157 67.3122 253.724 50.2256 253.724C33.1391 253.724 19.9516 242.157 19.9516 225.221C19.9516 208.286 33.1391 196.719 50.2256 196.719Z" fill="white"/>
</mask>
<g mask="url(#mask30_1335_6112)">
<path d="M16.42 193.201H170.622V257.243H16.42V193.201Z" fill="#202E61"/>
</g>
</g>
</g>
</g>
</g>
</g>
<defs>
<clipPath id="clip0_1335_6112">
<rect width="191" height="272" fill="white"/>
</clipPath>
</defs>
</svg>
