<svg xmlns="http://www.w3.org/2000/svg" width="128" height="128" viewBox="0 0 128 128">
  <g id="Group_185198" data-name="Group 185198" transform="translate(-1316 -191)">
    <rect id="Rectangle_54521" data-name="Rectangle 54521" width="128" height="128" rx="8" transform="translate(1316 191)" fill="#e5e7e8"/>
    <path id="Path_61337" data-name="Path 61337" d="M53.822,37.57a3.048,3.048,0,0,0-3.048,3.048v1.158l-4.512-4.512a8.5,8.5,0,0,0-11.98,0L32.148,39.4l-7.56-7.56a8.688,8.688,0,0,0-11.98,0L8.1,36.351V19.28a3.048,3.048,0,0,1,3.048-3.048H32.484a3.048,3.048,0,1,0,0-6.1H11.145A9.145,9.145,0,0,0,2,19.28V55.86a9.145,9.145,0,0,0,9.145,9.145h36.58a9.145,9.145,0,0,0,9.145-9.145V40.618A3.048,3.048,0,0,0,53.822,37.57ZM11.145,58.909A3.048,3.048,0,0,1,8.1,55.86V44.978l8.84-8.84a2.408,2.408,0,0,1,3.323,0L29.923,45.8h0L43.031,58.909ZM50.774,55.86a2.713,2.713,0,0,1-.549,1.616L36.477,43.667l2.134-2.134a2.347,2.347,0,0,1,3.353,0l8.81,8.871ZM65.132,11.019,55.986,1.874a3.151,3.151,0,0,0-4.329,0l-9.145,9.145a3.061,3.061,0,0,0,4.329,4.329l3.932-3.963v17.04a3.048,3.048,0,0,0,6.1,0V11.385L60.8,15.348a3.061,3.061,0,1,0,4.329-4.329Z" transform="translate(1346 221.995)" fill="#536679"/>
  </g>
</svg>
