<svg width="18" height="17" viewBox="0 0 18 17" fill="none" xmlns="http://www.w3.org/2000/svg">
<path d="M7.99999 16.5C7.71666 16.5 7.47916 16.4042 7.28749 16.2125C7.09582 16.0208 6.99999 15.7833 6.99999 15.5V9.5L1.19999 2.1C0.949989 1.76667 0.912489 1.41667 1.08749 1.05C1.26249 0.683333 1.56666 0.5 1.99999 0.5H16C16.4333 0.5 16.7375 0.683333 16.9125 1.05C17.0875 1.41667 17.05 1.76667 16.8 2.1L11 9.5V15.5C11 15.7833 10.9042 16.0208 10.7125 16.2125C10.5208 16.4042 10.2833 16.5 9.99999 16.5H7.99999ZM8.99999 8.8L13.95 2.5H4.04999L8.99999 8.8Z" fill="#737373"/>
</svg>
