<svg width="14" height="19" viewBox="0 0 14 19" fill="none" xmlns="http://www.w3.org/2000/svg">
<path d="M2.00016 18.3334C1.54183 18.3334 1.14947 18.1702 0.823079 17.8438C0.496691 17.5174 0.333496 17.125 0.333496 16.6667V8.33337C0.333496 7.87504 0.496691 7.48268 0.823079 7.15629C1.14947 6.8299 1.54183 6.66671 2.00016 6.66671H2.8335V5.00004C2.8335 3.84726 3.23975 2.86462 4.05225 2.05212C4.86475 1.23962 5.84738 0.833374 7.00016 0.833374C8.15294 0.833374 9.13558 1.23962 9.94808 2.05212C10.7606 2.86462 11.1668 3.84726 11.1668 5.00004V6.66671H12.0002C12.4585 6.66671 12.8509 6.8299 13.1772 7.15629C13.5036 7.48268 13.6668 7.87504 13.6668 8.33337V16.6667C13.6668 17.125 13.5036 17.5174 13.1772 17.8438C12.8509 18.1702 12.4585 18.3334 12.0002 18.3334H2.00016ZM2.00016 16.6667H12.0002V8.33337H2.00016V16.6667ZM7.00016 14.1667C7.4585 14.1667 7.85086 14.0035 8.17725 13.6771C8.50364 13.3507 8.66683 12.9584 8.66683 12.5C8.66683 12.0417 8.50364 11.6493 8.17725 11.323C7.85086 10.9966 7.4585 10.8334 7.00016 10.8334C6.54183 10.8334 6.14947 10.9966 5.82308 11.323C5.49669 11.6493 5.3335 12.0417 5.3335 12.5C5.3335 12.9584 5.49669 13.3507 5.82308 13.6771C6.14947 14.0035 6.54183 14.1667 7.00016 14.1667ZM4.50016 6.66671H9.50016V5.00004C9.50016 4.3056 9.25711 3.71532 8.771 3.22921C8.28488 2.7431 7.69461 2.50004 7.00016 2.50004C6.30572 2.50004 5.71544 2.7431 5.22933 3.22921C4.74322 3.71532 4.50016 4.3056 4.50016 5.00004V6.66671Z" fill="url(#paint0_linear_1393_5697)"/>
<defs>
<linearGradient id="paint0_linear_1393_5697" x1="7.00016" y1="0.833374" x2="7.00016" y2="75.6459" gradientUnits="userSpaceOnUse">
<stop stop-color="#E0001E"/>
<stop offset="1" stop-color="#70000F"/>
</linearGradient>
</defs>
</svg>
