<svg width="234" height="122" viewBox="0 0 234 122" fill="none" xmlns="http://www.w3.org/2000/svg">
<g clip-path="url(#clip0_1393_5879)">
<mask id="mask0_1393_5879" style="mask-type:luminance" maskUnits="userSpaceOnUse" x="-92" y="-20" width="298" height="232">
<path fill-rule="evenodd" clip-rule="evenodd" d="M-91.2681 -19.3846H205.856V211.211H-91.2681V-19.3846Z" fill="white"/>
</mask>
<g mask="url(#mask0_1393_5879)">
<path d="M-91.2681 -19.3846H205.856V211.212H-91.2681V-19.3846Z" fill="white"/>
</g>
<mask id="mask1_1393_5879" style="mask-type:luminance" maskUnits="userSpaceOnUse" x="-92" y="-20" width="298" height="235">
<path d="M-91.2681 -19.3846H205.856V214.037H-91.2681V-19.3846Z" fill="white"/>
</mask>
<g mask="url(#mask1_1393_5879)">
<mask id="mask2_1393_5879" style="mask-type:luminance" maskUnits="userSpaceOnUse" x="-92" y="-20" width="298" height="232">
<path d="M-91.2681 -19.3846H205.856V211.211H-91.2681V-19.3846Z" fill="white"/>
</mask>
<g mask="url(#mask2_1393_5879)">
<mask id="mask3_1393_5879" style="mask-type:luminance" maskUnits="userSpaceOnUse" x="-92" y="-20" width="298" height="232">
<path d="M-91.2681 -19.3846H205.856V211.211H-91.2681V-19.3846Z" fill="white"/>
</mask>
<g mask="url(#mask3_1393_5879)">
<mask id="mask4_1393_5879" style="mask-type:luminance" maskUnits="userSpaceOnUse" x="2" y="12" width="99" height="99">
<path d="M2.65527 12.5065H100.331V110.232H2.65527V12.5065Z" fill="white"/>
</mask>
<g mask="url(#mask4_1393_5879)">
<mask id="mask5_1393_5879" style="mask-type:luminance" maskUnits="userSpaceOnUse" x="5" y="12" width="96" height="97">
<path d="M38.9487 12.782V14.195C38.9487 35.2049 38.9449 56.211 38.9525 77.2209C38.9525 78.7884 38.7499 78.6113 40.3818 78.6113L100.249 78.6151C94.7083 93.6151 76.9708 109.919 52.5857 108.845C28.4368 107.786 9.14253 89.1502 6.09252 65.9737C2.73112 40.4235 19.1892 19.2327 38.9487 12.782Z" fill="white"/>
</mask>
<g mask="url(#mask5_1393_5879)">
<path d="M3.77783 3.1098H110.809V110.608H3.77783V3.1098Z" fill="#CB2028"/>
</g>
</g>
</g>
</g>
</g>
<mask id="mask6_1393_5879" style="mask-type:luminance" maskUnits="userSpaceOnUse" x="-92" y="-20" width="298" height="235">
<path d="M-91.2681 -19.3846H205.856V214.037H-91.2681V-19.3846Z" fill="white"/>
</mask>
<g mask="url(#mask6_1393_5879)">
<mask id="mask7_1393_5879" style="mask-type:luminance" maskUnits="userSpaceOnUse" x="-92" y="-20" width="298" height="232">
<path d="M-91.2681 -19.3846H205.856V211.211H-91.2681V-19.3846Z" fill="white"/>
</mask>
<g mask="url(#mask7_1393_5879)">
<mask id="mask8_1393_5879" style="mask-type:luminance" maskUnits="userSpaceOnUse" x="-92" y="-20" width="298" height="232">
<path d="M-91.2681 -19.3846H205.856V211.211H-91.2681V-19.3846Z" fill="white"/>
</mask>
<g mask="url(#mask8_1393_5879)">
<mask id="mask9_1393_5879" style="mask-type:luminance" maskUnits="userSpaceOnUse" x="50" y="11" width="51" height="55">
<path d="M50.9316 11.3788H100.331V65.8795H50.9316V11.3788Z" fill="white"/>
</mask>
<g mask="url(#mask9_1393_5879)">
<mask id="mask10_1393_5879" style="mask-type:luminance" maskUnits="userSpaceOnUse" x="51" y="11" width="50" height="55">
<path d="M51.2505 11.8853C51.288 20.4836 51.273 30.0843 51.273 38.6864L51.2467 64.3723C51.2392 65.4198 51.5543 65.6308 52.5297 65.6233L67.1008 65.6007C77.8828 65.6007 88.6611 65.6007 99.4431 65.6007C99.9908 65.6007 100.242 65.7627 100.246 64.8772C100.246 64.5758 100.19 60.5742 100.19 52.7408L100.163 52.7445L63.9458 52.7408V11.7458" fill="white"/>
</mask>
<g mask="url(#mask10_1393_5879)">
<path d="M3.77832 3.1098H110.81V110.608H3.77832V3.1098Z" fill="#CB2028"/>
</g>
</g>
</g>
</g>
</g>
<mask id="mask11_1393_5879" style="mask-type:luminance" maskUnits="userSpaceOnUse" x="-92" y="-20" width="298" height="235">
<path d="M-91.2681 -19.3846H205.856V214.037H-91.2681V-19.3846Z" fill="white"/>
</mask>
<g mask="url(#mask11_1393_5879)">
<mask id="mask12_1393_5879" style="mask-type:luminance" maskUnits="userSpaceOnUse" x="-92" y="-20" width="298" height="232">
<path d="M-91.2681 -19.3846H205.856V211.211H-91.2681V-19.3846Z" fill="white"/>
</mask>
<g mask="url(#mask12_1393_5879)">
<mask id="mask13_1393_5879" style="mask-type:luminance" maskUnits="userSpaceOnUse" x="-92" y="-20" width="298" height="232">
<path d="M-91.2681 -19.3846H205.856V211.211H-91.2681V-19.3846Z" fill="white"/>
</mask>
<g mask="url(#mask13_1393_5879)">
<mask id="mask14_1393_5879" style="mask-type:luminance" maskUnits="userSpaceOnUse" x="74" y="4" width="36" height="39">
<path d="M74.1343 4.98914H109.312V42.5758H74.1343V4.98914Z" fill="white"/>
</mask>
<g mask="url(#mask14_1393_5879)">
<mask id="mask15_1393_5879" style="mask-type:luminance" maskUnits="userSpaceOnUse" x="74" y="4" width="35" height="39">
<path d="M74.2362 5.00885C74.2625 11.192 74.2512 16.987 74.2512 23.1664L74.2325 41.633C74.2287 42.3866 74.4538 42.5373 75.1554 42.5297L85.6297 42.5147C93.3805 42.5147 101.131 42.5147 108.882 42.5147C108.882 42.5147 108.972 40.5855 108.908 37.8462C108.908 37.8462 108.912 35.3971 108.904 34.9487C108.878 32.7746 108.878 32.2735 108.878 32.2735L84.8343 32.3488L84.7443 4.99377" fill="white"/>
</mask>
<g mask="url(#mask15_1393_5879)">
<path d="M3.77832 3.1098H110.81V110.608H3.77832V3.1098Z" fill="#CB2028"/>
</g>
</g>
</g>
</g>
</g>
<mask id="mask16_1393_5879" style="mask-type:luminance" maskUnits="userSpaceOnUse" x="-92" y="-20" width="298" height="235">
<path d="M-91.2681 -19.3846H205.856V214.037H-91.2681V-19.3846Z" fill="white"/>
</mask>
<g mask="url(#mask16_1393_5879)">
<mask id="mask17_1393_5879" style="mask-type:luminance" maskUnits="userSpaceOnUse" x="-92" y="-20" width="298" height="232">
<path d="M-91.2681 -19.3846H205.856V211.211H-91.2681V-19.3846Z" fill="white"/>
</mask>
<g mask="url(#mask17_1393_5879)">
<mask id="mask18_1393_5879" style="mask-type:luminance" maskUnits="userSpaceOnUse" x="-92" y="-20" width="298" height="232">
<path d="M-91.2681 -19.3846H205.856V211.211H-91.2681V-19.3846Z" fill="white"/>
</mask>
<g mask="url(#mask18_1393_5879)">
<mask id="mask19_1393_5879" style="mask-type:luminance" maskUnits="userSpaceOnUse" x="12" y="121" width="38" height="36">
<path d="M12.2119 121.493H49.4415V156.722H12.2119V121.493Z" fill="white"/>
</mask>
<g mask="url(#mask19_1393_5879)">
<mask id="mask20_1393_5879" style="mask-type:luminance" maskUnits="userSpaceOnUse" x="12" y="121" width="38" height="36">
<path d="M30.7665 130.586C25.8382 130.586 22.6364 134.362 22.6364 139.107C22.6364 143.853 25.8382 147.629 30.7665 147.629C35.6948 147.629 38.8967 143.853 38.8967 139.107C38.8967 134.362 35.6948 130.586 30.7665 130.586ZM30.7665 121.503C41.2332 121.503 49.3114 128.647 49.3114 139.107C49.3114 149.568 41.2332 156.712 30.7665 156.712C20.2999 156.712 12.2217 149.568 12.2217 139.107C12.2217 128.647 20.2999 121.503 30.7665 121.503Z" fill="white"/>
</mask>
<g mask="url(#mask20_1393_5879)">
<path d="M10.0581 119.33H104.517V158.885H10.0581V119.33Z" fill="#202E61"/>
</g>
</g>
</g>
</g>
</g>
</g>
<g clip-path="url(#clip1_1393_5879)">
<mask id="mask21_1393_5879" style="mask-type:luminance" maskUnits="userSpaceOnUse" x="25" y="-97" width="298" height="231">
<path fill-rule="evenodd" clip-rule="evenodd" d="M25.7319 -96.8846H322.856V133.711H25.7319V-96.8846Z" fill="white"/>
</mask>
<g mask="url(#mask21_1393_5879)">
<path d="M25.7319 -96.8846H322.856V133.712H25.7319V-96.8846Z" fill="white"/>
</g>
<mask id="mask22_1393_5879" style="mask-type:luminance" maskUnits="userSpaceOnUse" x="25" y="-97" width="298" height="234">
<path d="M25.7319 -96.8846H322.856V136.537H25.7319V-96.8846Z" fill="white"/>
</mask>
<g mask="url(#mask22_1393_5879)">
<mask id="mask23_1393_5879" style="mask-type:luminance" maskUnits="userSpaceOnUse" x="25" y="-97" width="298" height="231">
<path d="M25.7319 -96.8846H322.856V133.711H25.7319V-96.8846Z" fill="white"/>
</mask>
<g mask="url(#mask23_1393_5879)">
<mask id="mask24_1393_5879" style="mask-type:luminance" maskUnits="userSpaceOnUse" x="25" y="-97" width="298" height="231">
<path d="M25.7319 -96.8846H322.856V133.711H25.7319V-96.8846Z" fill="white"/>
</mask>
<g mask="url(#mask24_1393_5879)">
<mask id="mask25_1393_5879" style="mask-type:luminance" maskUnits="userSpaceOnUse" x="119" y="-65" width="99" height="98">
<path d="M119.655 -64.9935H217.331V32.7318H119.655V-64.9935Z" fill="white"/>
</mask>
<g mask="url(#mask25_1393_5879)">
<mask id="mask26_1393_5879" style="mask-type:luminance" maskUnits="userSpaceOnUse" x="122" y="-65" width="96" height="97">
<path d="M155.949 -64.718V-63.305C155.949 -42.2951 155.945 -21.289 155.952 -0.279091C155.952 1.28835 155.75 1.11127 157.382 1.11127L217.249 1.11507C211.708 16.1151 193.971 32.4189 169.586 31.345C145.437 30.2863 126.143 11.6502 123.093 -11.5263C119.731 -37.0765 136.189 -58.2673 155.949 -64.718Z" fill="white"/>
</mask>
<g mask="url(#mask26_1393_5879)">
</g>
</g>
</g>
</g>
</g>
<mask id="mask27_1393_5879" style="mask-type:luminance" maskUnits="userSpaceOnUse" x="25" y="-97" width="298" height="234">
<path d="M25.7319 -96.8846H322.856V136.537H25.7319V-96.8846Z" fill="white"/>
</mask>
<g mask="url(#mask27_1393_5879)">
<mask id="mask28_1393_5879" style="mask-type:luminance" maskUnits="userSpaceOnUse" x="25" y="-97" width="298" height="231">
<path d="M25.7319 -96.8846H322.856V133.711H25.7319V-96.8846Z" fill="white"/>
</mask>
<g mask="url(#mask28_1393_5879)">
<mask id="mask29_1393_5879" style="mask-type:luminance" maskUnits="userSpaceOnUse" x="25" y="-97" width="298" height="231">
<path d="M25.7319 -96.8846H322.856V133.711H25.7319V-96.8846Z" fill="white"/>
</mask>
<g mask="url(#mask29_1393_5879)">
<mask id="mask30_1393_5879" style="mask-type:luminance" maskUnits="userSpaceOnUse" x="169" y="45" width="24" height="34">
<path d="M169.519 45.0748H192.595V78.7584H169.519V45.0748Z" fill="white"/>
</mask>
<g mask="url(#mask30_1393_5879)">
<mask id="mask31_1393_5879" style="mask-type:luminance" maskUnits="userSpaceOnUse" x="169" y="45" width="24" height="34">
<path d="M179.785 45.0937H169.652V78.699H192.48V69.8338H179.785V45.0937Z" fill="white"/>
</mask>
<g mask="url(#mask31_1393_5879)">
<path d="M127.059 41.8301H221.517V81.3851H127.059V41.8301Z" fill="#202E61"/>
</g>
</g>
</g>
</g>
</g>
<mask id="mask32_1393_5879" style="mask-type:luminance" maskUnits="userSpaceOnUse" x="25" y="-97" width="298" height="234">
<path d="M25.7319 -96.8846H322.856V136.537H25.7319V-96.8846Z" fill="white"/>
</mask>
<g mask="url(#mask32_1393_5879)">
<mask id="mask33_1393_5879" style="mask-type:luminance" maskUnits="userSpaceOnUse" x="25" y="-97" width="298" height="231">
<path d="M25.7319 -96.8846H322.856V133.711H25.7319V-96.8846Z" fill="white"/>
</mask>
<g mask="url(#mask33_1393_5879)">
<mask id="mask34_1393_5879" style="mask-type:luminance" maskUnits="userSpaceOnUse" x="25" y="-97" width="298" height="231">
<path d="M25.7319 -96.8846H322.856V133.711H25.7319V-96.8846Z" fill="white"/>
</mask>
<g mask="url(#mask34_1393_5879)">
<mask id="mask35_1393_5879" style="mask-type:luminance" maskUnits="userSpaceOnUse" x="196" y="45" width="24" height="34">
<path d="M196.441 45.0748H219.517V78.7584H196.441V45.0748Z" fill="white"/>
</mask>
<g mask="url(#mask35_1393_5879)">
<mask id="mask36_1393_5879" style="mask-type:luminance" maskUnits="userSpaceOnUse" x="196" y="45" width="24" height="34">
<path d="M206.673 69.8338V45.0937H196.543V78.699H219.368V69.8338H206.673Z" fill="white"/>
</mask>
<g mask="url(#mask36_1393_5879)">
<path d="M127.059 41.8301H221.517V81.3851H127.059V41.8301Z" fill="#202E61"/>
</g>
</g>
</g>
</g>
</g>
<mask id="mask37_1393_5879" style="mask-type:luminance" maskUnits="userSpaceOnUse" x="25" y="-97" width="298" height="234">
<path d="M25.7319 -96.8846H322.856V136.537H25.7319V-96.8846Z" fill="white"/>
</mask>
<g mask="url(#mask37_1393_5879)">
<mask id="mask38_1393_5879" style="mask-type:luminance" maskUnits="userSpaceOnUse" x="25" y="-97" width="298" height="231">
<path d="M25.7319 -96.8846H322.856V133.711H25.7319V-96.8846Z" fill="white"/>
</mask>
<g mask="url(#mask38_1393_5879)">
<mask id="mask39_1393_5879" style="mask-type:luminance" maskUnits="userSpaceOnUse" x="25" y="-97" width="298" height="231">
<path d="M25.7319 -96.8846H322.856V133.711H25.7319V-96.8846Z" fill="white"/>
</mask>
<g mask="url(#mask39_1393_5879)">
<mask id="mask40_1393_5879" style="mask-type:luminance" maskUnits="userSpaceOnUse" x="129" y="43" width="38" height="37">
<path d="M129.212 43.9933H166.442V79.222H129.212V43.9933Z" fill="white"/>
</mask>
<g mask="url(#mask40_1393_5879)">
<mask id="mask41_1393_5879" style="mask-type:luminance" maskUnits="userSpaceOnUse" x="129" y="44" width="38" height="36">
<path d="M147.767 53.0856C142.838 53.0856 139.636 56.862 139.636 61.6075C139.636 66.353 142.838 70.1294 147.767 70.1294C152.695 70.1294 155.897 66.353 155.897 61.6075C155.897 56.862 152.695 53.0856 147.767 53.0856ZM147.767 44.0031C158.233 44.0031 166.311 51.1474 166.311 61.6075C166.311 72.0676 158.233 79.2119 147.767 79.2119C137.3 79.2119 129.222 72.0676 129.222 61.6075C129.222 51.1474 137.3 44.0031 147.767 44.0031Z" fill="white"/>
</mask>
<g mask="url(#mask41_1393_5879)">
<path d="M127.058 41.8301H221.517V81.3852H127.058V41.8301Z" fill="#202E61"/>
</g>
</g>
</g>
</g>
</g>
</g>
<defs>
<clipPath id="clip0_1393_5879">
<rect width="117" height="122" fill="white"/>
</clipPath>
<clipPath id="clip1_1393_5879">
<rect width="117" height="59" fill="white" transform="translate(117 31.5)"/>
</clipPath>
</defs>
</svg>
