<svg width="17" height="17" viewBox="0 0 17 17" fill="none" xmlns="http://www.w3.org/2000/svg">
<path d="M1.5 16.5C1.0875 16.5 0.734375 16.3531 0.440625 16.0594C0.146875 15.7656 0 15.4125 0 15V6.75H1.5V15H14.25V16.5H1.5ZM4.5 13.5C4.0875 13.5 3.73438 13.3531 3.44063 13.0594C3.14688 12.7656 3 12.4125 3 12V3.75H6.75V2.25C6.75 1.8375 6.89688 1.48438 7.19063 1.19063C7.48438 0.896875 7.8375 0.75 8.25 0.75H11.25C11.6625 0.75 12.0156 0.896875 12.3094 1.19063C12.6031 1.48438 12.75 1.8375 12.75 2.25V3.75H16.5V12C16.5 12.4125 16.3531 12.7656 16.0594 13.0594C15.7656 13.3531 15.4125 13.5 15 13.5H4.5ZM4.5 12H15V5.25H4.5V12ZM8.25 3.75H11.25V2.25H8.25V3.75Z" fill="#1C1B1F"/>
</svg>
