<svg width="17" height="17" viewBox="0 0 17 17" fill="none" xmlns="http://www.w3.org/2000/svg">
<path d="M6.1375 14.8438C4.8375 14.2437 3.78125 13.3375 2.96875 12.125C2.15625 10.9125 1.75 9.54375 1.75 8.01875C1.75 7.69375 1.76562 7.375 1.79688 7.0625C1.82813 6.75 1.88125 6.44375 1.95625 6.14375L1.09375 6.65L0.34375 5.35625L3.925 3.29375L5.9875 6.85625L4.675 7.60625L3.6625 5.84375C3.525 6.18125 3.42188 6.53125 3.35313 6.89375C3.28438 7.25625 3.25 7.63125 3.25 8.01875C3.25 9.23125 3.58125 10.3344 4.24375 11.3281C4.90625 12.3219 5.7875 13.0562 6.8875 13.5312L6.1375 14.8438ZM11.875 5.75V4.25H13.9188C13.3438 3.5375 12.65 2.98438 11.8375 2.59063C11.025 2.19688 10.1625 2 9.25 2C8.5625 2 7.9125 2.10625 7.3 2.31875C6.6875 2.53125 6.125 2.83125 5.6125 3.21875L4.8625 1.90625C5.4875 1.46875 6.16875 1.125 6.90625 0.875C7.64375 0.625 8.425 0.5 9.25 0.5C10.2375 0.5 11.1813 0.684375 12.0813 1.05313C12.9813 1.42187 13.7875 1.95625 14.5 2.65625V1.625H16V5.75H11.875ZM11.3875 17L7.80625 14.9375L9.86875 11.375L11.1625 12.125L10.0938 13.9625C11.5687 13.75 12.7969 13.0813 13.7781 11.9563C14.7594 10.8313 15.25 9.5125 15.25 8C15.25 7.8625 15.2469 7.73438 15.2406 7.61563C15.2344 7.49688 15.2188 7.375 15.1938 7.25H16.7125C16.725 7.375 16.7344 7.49688 16.7406 7.61563C16.7469 7.73438 16.75 7.8625 16.75 8C16.75 9.6875 16.2469 11.1969 15.2406 12.5281C14.2344 13.8594 12.925 14.7562 11.3125 15.2188L12.1375 15.7062L11.3875 17Z" fill="#1C1B1F"/>
</svg>
