<svg width="40" height="41" viewBox="0 0 40 41" fill="none" xmlns="http://www.w3.org/2000/svg">
<g clip-path="url(#clip0_18_1222)">
<g clip-path="url(#clip1_18_1222)">
<path d="M20.4717 21.2091H39.8839C39.9375 20.6137 39.992 20.0729 39.992 19.4775C39.9933 14.3132 37.9431 9.35989 34.2924 5.70718C30.6417 2.05448 25.6896 0.00155044 20.5253 0L20.4717 0V21.2091Z" fill="url(#paint0_linear_18_1222)"/>
<path d="M13.6895 27.7935V1.08165C9.41555 2.49957 5.74603 5.31991 3.27621 9.08516C0.806389 12.8504 -0.318846 17.3397 0.0830382 21.8247C0.484923 26.3098 2.39035 30.5275 5.49023 33.7936C8.5901 37.0598 12.7026 39.1828 17.1605 39.8183C21.6174 40.5206 26.1813 39.7201 30.1332 37.543C34.0851 35.366 37.2004 31.936 38.9884 27.7935H13.6895Z" fill="url(#paint1_linear_18_1222)"/>
</g>
</g>
<defs>
<linearGradient id="paint0_linear_18_1222" x1="30.2319" y1="0" x2="30.2319" y2="90.6689" gradientUnits="userSpaceOnUse">
<stop stop-color="#E0001E"/>
<stop offset="1" stop-color="#70000F"/>
</linearGradient>
<linearGradient id="paint1_linear_18_1222" x1="19.4958" y1="1.08165" x2="19.4958" y2="167.74" gradientUnits="userSpaceOnUse">
<stop stop-color="#E0001E"/>
<stop offset="1" stop-color="#70000F"/>
</linearGradient>
<clipPath id="clip0_18_1222">
<rect width="40" height="40.06" fill="white"/>
</clipPath>
<clipPath id="clip1_18_1222">
<rect width="39.984" height="40.06" fill="white" transform="translate(0.00805664)"/>
</clipPath>
</defs>
</svg>
