<svg width="18" height="19" viewBox="0 0 18 19" fill="none" xmlns="http://www.w3.org/2000/svg">
<mask id="mask0_975_290" style="mask-type:alpha" maskUnits="userSpaceOnUse" x="0" y="0" width="18" height="19">
<rect y="0.75" width="18" height="18" fill="#D9D9D9"/>
</mask>
<g mask="url(#mask0_975_290)">
<path d="M5.8875 16.5938C4.5875 15.9937 3.53125 15.0875 2.71875 13.875C1.90625 12.6625 1.5 11.2938 1.5 9.76875C1.5 9.44375 1.51562 9.125 1.54688 8.8125C1.57813 8.5 1.63125 8.19375 1.70625 7.89375L0.84375 8.4L0.09375 7.10625L3.675 5.04375L5.7375 8.60625L4.425 9.35625L3.4125 7.59375C3.275 7.93125 3.17188 8.28125 3.10313 8.64375C3.03438 9.00625 3 9.38125 3 9.76875C3 10.9813 3.33125 12.0844 3.99375 13.0781C4.65625 14.0719 5.5375 14.8062 6.6375 15.2812L5.8875 16.5938ZM11.625 7.5V6H13.6688C13.0938 5.2875 12.4 4.73438 11.5875 4.34063C10.775 3.94688 9.9125 3.75 9 3.75C8.3125 3.75 7.6625 3.85625 7.05 4.06875C6.4375 4.28125 5.875 4.58125 5.3625 4.96875L4.6125 3.65625C5.2375 3.21875 5.91875 2.875 6.65625 2.625C7.39375 2.375 8.175 2.25 9 2.25C9.9875 2.25 10.9313 2.43438 11.8313 2.80313C12.7313 3.17187 13.5375 3.70625 14.25 4.40625V3.375H15.75V7.5H11.625ZM11.1375 18.75L7.55625 16.6875L9.61875 13.125L10.9125 13.875L9.84375 15.7125C11.3187 15.5 12.5469 14.8313 13.5281 13.7063C14.5094 12.5813 15 11.2625 15 9.75C15 9.6125 14.9969 9.48438 14.9906 9.36563C14.9844 9.24688 14.9688 9.125 14.9438 9H16.4625C16.475 9.125 16.4844 9.24688 16.4906 9.36563C16.4969 9.48438 16.5 9.6125 16.5 9.75C16.5 11.4375 15.9969 12.9469 14.9906 14.2781C13.9844 15.6094 12.675 16.5062 11.0625 16.9688L11.8875 17.4562L11.1375 18.75Z" fill="#1C1B1F"/>
</g>
</svg>
