<svg width="18" height="19" viewBox="0 0 18 19" fill="none" xmlns="http://www.w3.org/2000/svg">
<mask id="mask0_975_297" style="mask-type:alpha" maskUnits="userSpaceOnUse" x="0" y="0" width="18" height="19">
<rect y="0.75" width="18" height="18" fill="#D9D9D9"/>
</mask>
<g mask="url(#mask0_975_297)">
<path d="M2.25 17.25C1.8375 17.25 1.48438 17.1031 1.19063 16.8094C0.896875 16.5156 0.75 16.1625 0.75 15.75V7.5H2.25V15.75H15V17.25H2.25ZM5.25 14.25C4.8375 14.25 4.48438 14.1031 4.19063 13.8094C3.89688 13.5156 3.75 13.1625 3.75 12.75V4.5H7.5V3C7.5 2.5875 7.64688 2.23438 7.94063 1.94063C8.23438 1.64688 8.5875 1.5 9 1.5H12C12.4125 1.5 12.7656 1.64688 13.0594 1.94063C13.3531 2.23438 13.5 2.5875 13.5 3V4.5H17.25V12.75C17.25 13.1625 17.1031 13.5156 16.8094 13.8094C16.5156 14.1031 16.1625 14.25 15.75 14.25H5.25ZM5.25 12.75H15.75V6H5.25V12.75ZM9 4.5H12V3H9V4.5Z" fill="#1C1B1F"/>
</g>
</svg>
